<svg width="76" height="76" viewBox="0 0 76 76" fill="none" xmlns="http://www.w3.org/2000/svg">
<path d="M61.8537 60.0478H15.9527V14.1468C15.9527 13.1685 15.125 12.3408 14.1468 12.3408C13.1685 12.3408 12.3408 13.1685 12.3408 14.1468V61.8537C12.3408 62.8319 13.1685 63.6596 14.1468 63.6596H61.8537C62.8319 63.6596 63.6596 62.8319 63.6596 61.8537C63.6596 60.8755 62.8319 60.0478 61.8537 60.0478Z" fill="black"/>
<path d="M33.4851 53.0496V27.0139C33.4851 26.0357 32.6574 25.208 31.6792 25.208C30.701 25.208 29.8732 26.0357 29.8732 27.0139V53.1248C29.8732 54.1031 30.701 54.9308 31.6792 54.9308C32.6574 54.9308 33.4851 54.1031 33.4851 53.0496ZM24.7564 53.0496V27.0139C24.7564 26.0357 23.9287 25.208 22.9505 25.208C21.9723 25.208 21.1445 26.0357 21.1445 27.0139V53.1248C21.1445 54.1031 21.9723 54.9308 22.9505 54.9308C23.9287 54.8555 24.7564 54.1031 24.7564 53.0496ZM51.0178 53.0496V27.0139C51.0178 26.0357 50.1901 25.208 49.2119 25.208C48.2336 25.208 47.4059 26.0357 47.4059 27.0139V53.1248C47.4059 54.1031 48.2336 54.9308 49.2119 54.9308C50.1901 54.8555 51.0178 54.1031 51.0178 53.0496ZM59.7465 53.0496V40.0318C59.7465 39.0536 58.9188 38.2258 57.9406 38.2258C56.9624 38.2258 56.1346 39.0536 56.1346 40.0318V53.0496C56.1346 54.0278 56.9624 54.8555 57.9406 54.8555C58.9188 54.8555 59.7465 54.1031 59.7465 53.0496ZM42.2138 53.0496V40.0318C42.2138 39.0536 41.3861 38.2258 40.4079 38.2258C39.4297 38.2258 38.602 39.0536 38.602 40.0318V53.0496C38.602 54.0278 39.4297 54.8555 40.4079 54.8555C41.3861 54.8555 42.2138 54.1031 42.2138 53.0496Z" fill="#2185D5"/>
</svg>
