<svg width="85" height="76" viewBox="0 0 85 76" fill="none" xmlns="http://www.w3.org/2000/svg">
<path d="M60.0934 75.9998C59.1159 75.9998 58.3269 75.2089 58.3269 74.2333V68.93C58.3269 64.6838 56.6712 60.6907 53.6648 57.6843C52.8295 56.8491 51.9426 56.1358 51.0279 55.5649C50.2 55.0493 49.9469 53.9591 50.4643 53.1313C50.9798 52.3034 52.0682 52.0484 52.8997 52.5658C54.0399 53.2772 55.1393 54.1587 56.1649 55.1842C59.8384 58.8595 61.8618 63.7395 61.8618 68.93V74.2333C61.8618 75.2089 61.0709 75.9998 60.0934 75.9998Z" fill="#2185D5"/>
<path d="M24.7445 75.997C23.7688 75.997 22.9761 75.2062 22.9761 74.2305V68.9273C22.9761 62.2881 26.3207 56.1756 31.9196 52.5779C32.7401 52.0457 33.8359 52.2878 34.3625 53.1064C34.8891 53.9286 34.6526 55.0225 33.8303 55.5492C29.2477 58.4946 26.511 63.4966 26.511 68.9273V74.2305C26.511 75.2062 25.7201 75.997 24.7445 75.997Z" fill="#2185D5"/>
<path fill-rule="evenodd" clip-rule="evenodd" d="M42.4193 53.0228C33.6476 53.0228 26.5112 45.8865 26.5112 37.115C26.5112 28.3434 33.6476 21.209 42.4193 21.209C51.191 21.209 58.3274 28.3434 58.3274 37.115C58.3274 45.8865 51.191 53.0228 42.4193 53.0228ZM42.4193 24.7439C35.5971 24.7439 30.0462 30.2947 30.0462 37.115C30.0462 43.9371 35.5971 49.4879 42.4193 49.4879C49.2397 49.4879 54.7925 43.9371 54.7925 37.115C54.7925 30.2947 49.2397 24.7439 42.4193 24.7439Z" fill="#2185D5"/>
<path d="M42.4188 58.3248C38.7693 58.3248 35.1697 57.3843 32.0081 55.6049L33.7413 52.5264C39.0095 55.4866 45.8299 55.4866 51.0981 52.5264L52.8296 55.6049C49.6679 57.3843 46.0683 58.3248 42.4188 58.3248Z" fill="#2185D5"/>
<path d="M67.1636 63.6276C66.1861 63.6276 65.3971 62.8367 65.3971 61.8592C65.3971 60.8817 66.1861 60.0927 67.1636 60.0927C74.9596 60.0927 81.3033 53.7492 81.3033 45.9533C81.3033 39.9553 77.5116 34.6003 71.8664 32.6324C71.1734 32.3903 70.7022 31.7454 70.6819 31.0119C70.2624 15.6048 57.8486 3.53489 42.4191 3.53489C30.6761 3.53489 20.0269 10.9206 15.9192 21.9151C15.7529 22.3567 15.4203 22.7133 14.9897 22.9092C8.03075 26.0449 3.53493 33.0093 3.53493 40.65C3.53493 49.5306 9.53119 57.273 18.1144 59.4793C19.0605 59.7232 19.6297 60.6859 19.3857 61.6319C19.1437 62.5762 18.1828 63.1509 17.2348 62.9033C7.08649 60.2941 0 51.1437 0 40.65C0 31.8674 5.02799 23.8423 12.8702 19.9989C17.6709 8.00657 29.4528 0 42.4191 0C59.3786 0 73.1026 12.9643 74.1632 29.7332C80.5956 32.4883 84.8382 38.8595 84.8382 45.9533C84.8382 55.6968 76.9091 63.6276 67.1636 63.6276Z" fill="black"/>
<path d="M42.4188 75.9979C41.4431 75.9979 40.6504 75.207 40.6504 74.2313V63.6268C40.6504 62.6493 41.4431 61.8584 42.4188 61.8584C43.3944 61.8584 44.1871 62.6493 44.1871 63.6268V74.2313C44.1871 75.207 43.3944 75.9979 42.4188 75.9979Z" fill="#2185D5"/>
<path fill-rule="evenodd" clip-rule="evenodd" d="M45.9542 65.3937H38.8843C37.9087 65.3937 37.116 64.6028 37.116 63.6272V56.5574C37.116 55.5799 37.9087 54.7891 38.8843 54.7891H45.9542C46.9317 54.7891 47.7207 55.5799 47.7207 56.5574V63.6272C47.7207 64.6028 46.9317 65.3937 45.9542 65.3937ZM40.6509 61.8588H44.1858V58.324H40.6509V61.8588Z" fill="#2185D5"/>
</svg>
