<svg width="70" height="77" viewBox="0 0 70 77" fill="none" xmlns="http://www.w3.org/2000/svg">
<path d="M35.2307 0.100586C40.5918 0.100632 45.5304 4.91887 48.9026 13.2773C52.7753 12.5562 56.2329 12.4399 59.1897 12.9385C59.8528 13.0503 60.2994 13.6788 60.1877 14.3418C60.0759 15.0048 59.4484 15.4522 58.7844 15.3398C56.2594 14.9142 53.1644 15.0049 49.7668 15.5977C51.1376 19.5893 52.0983 24.0274 52.6506 28.6445C55.598 31.0578 58.29 33.6307 60.6028 36.2803C63.3042 32.7939 65.095 29.4602 65.9055 26.5137C66.7235 23.5399 66.5417 20.9721 65.3098 19.0381C64.6807 18.0504 63.7813 17.2311 62.634 16.6045C62.044 16.2821 61.8264 15.5423 62.1487 14.9521C62.4711 14.3621 63.211 14.1451 63.801 14.4668C65.3101 15.291 66.5095 16.3887 67.3635 17.7295C69.3297 20.8161 69.1711 24.5019 67.9534 28.1309C66.7441 31.7346 64.4857 35.297 62.1975 38.1953C63.6557 40.0366 64.9223 41.9048 65.9543 43.7734C66.2791 44.3621 66.0654 45.1026 65.4768 45.4277C64.8908 45.7513 64.149 45.5412 63.8225 44.9502C62.9319 43.3377 61.8478 41.718 60.6038 40.1113C58.2914 42.7619 55.5985 45.3361 52.6506 47.751C52.0976 52.3746 51.1358 56.8145 49.7668 60.8018C53.5857 61.474 56.8962 61.5054 59.5364 60.9268C62.2025 60.3423 64.1777 59.1397 65.3098 57.3623C66.6624 55.2402 66.7645 52.2943 65.5745 48.8281C65.3563 48.1921 65.6943 47.4997 66.3303 47.2812C66.9655 47.0634 67.6592 47.4011 67.8772 48.0381C69.3079 52.2047 69.1389 55.8864 67.3635 58.6719C65.5803 61.4713 62.588 62.8856 59.2278 63.4482C55.8948 64.0062 52.1873 63.7274 48.9026 63.1221C47.394 66.8684 45.5844 69.9031 43.511 72.1455C43.0539 72.6395 42.2833 72.6687 41.7903 72.2129C41.2967 71.7563 41.2665 70.9859 41.7229 70.4922C43.4918 68.579 45.1224 65.87 46.4807 62.6055C42.8109 61.7203 39.007 60.3637 35.2346 58.6387C31.4675 60.3641 27.6614 61.7236 23.9788 62.6084C25.4637 66.1892 27.2179 68.996 29.1243 70.9111C31.0492 72.8449 33.1231 73.8651 35.2297 73.8652C36.3473 73.8652 37.4672 73.5757 38.5579 73.0029C39.1159 72.7102 39.7983 72.8933 40.1389 73.4082L40.2024 73.5156L40.2542 73.6279C40.4846 74.2007 40.248 74.866 39.6897 75.1592C38.2491 75.9154 36.7488 76.2997 35.2307 76.2998C29.8699 76.2998 24.9302 71.4822 21.5579 63.124C20.6833 63.2858 19.818 63.4195 18.9641 63.5215L18.0881 63.6162C17.4209 63.6808 16.824 63.1905 16.76 62.5195C16.6963 61.8501 17.1873 61.2554 17.8567 61.1914C18.7869 61.1025 19.7346 60.9709 20.6956 60.8037C19.2959 56.7327 18.3496 52.291 17.8088 47.7568C14.8735 45.3518 12.1824 42.7796 9.85962 40.1162C7.15714 43.6033 5.36684 46.9386 4.55591 49.8857C3.73756 52.8599 3.91866 55.428 5.15063 57.3623C6.99245 60.2542 10.7387 61.0918 13.5872 61.2783C14.2581 61.3225 14.7669 61.9021 14.7229 62.5732C14.6789 63.2405 14.1028 63.7513 13.428 63.708C8.65728 63.3956 5.26716 61.7198 3.3772 59.0879C1.48698 56.4552 1.11307 52.8871 2.32935 48.8262C3.32035 45.518 5.3671 41.8605 8.26489 38.2002C5.84096 35.143 4.04525 32.1489 2.92505 29.29C2.67991 28.6641 2.98856 27.9582 3.6145 27.7129C4.24035 27.4678 4.94718 27.7762 5.19263 28.4023C6.17473 30.9091 7.74235 33.5551 9.85864 36.2842C12.1793 33.6233 14.871 31.0509 17.8088 28.6436C18.3051 24.5082 19.222 19.9099 20.6956 15.5977C16.8763 14.9252 13.5655 14.895 10.925 15.4736C8.25858 16.058 6.28369 17.2606 5.15161 19.0381C4.23119 20.4825 3.88584 22.2799 4.13403 24.3877C4.21278 25.0556 3.73454 25.6615 3.06665 25.7402C2.39913 25.8176 1.79352 25.3409 1.71509 24.6729C1.40077 22.0043 1.86334 19.666 3.09692 17.7295C5.97667 13.2077 12.694 11.6304 21.5559 13.2773C22.7054 10.4168 24.127 7.75123 25.8684 5.52637C26.283 4.99712 27.048 4.90424 27.5774 5.31836C28.1069 5.73262 28.2005 6.49779 27.7864 7.02734C26.3698 8.83734 25.0903 11.1091 23.9758 13.7949C27.6616 14.6831 31.4656 16.0408 35.2288 17.7627C38.9995 16.0381 42.8048 14.6804 46.4817 13.7939C44.997 10.2132 43.2443 7.40566 41.3381 5.49023C39.4129 3.55574 37.3377 2.53518 35.2307 2.53516C33.7089 2.53516 32.1897 3.07048 30.7151 4.13379C30.1694 4.52716 29.4084 4.40387 29.0149 3.8584C28.6219 3.31293 28.746 2.55234 29.2913 2.15918C31.1828 0.795361 33.1814 0.100586 35.2307 0.100586ZM20.5637 49.9102C21.1344 53.6 21.982 57.1202 23.1028 60.3135C26.1217 59.6106 29.24 58.5666 32.3577 57.2471C28.2681 55.1656 24.2656 52.6757 20.5637 49.9102ZM49.8958 49.9053C46.2071 52.6619 42.2099 55.1556 38.1165 57.2432C41.2367 58.5615 44.3515 59.6045 47.3596 60.3086C48.4811 57.1121 49.3259 53.592 49.8958 49.9053ZM35.2327 20.4492C29.9412 22.9686 24.7343 26.226 20.1155 29.9092C19.5362 35.365 19.54 41.0516 20.1184 46.4922C24.7393 50.1764 29.9468 53.4321 35.2356 55.9502C40.5369 53.4211 45.7411 50.1559 50.343 46.4863C50.921 41.0443 50.9224 35.3606 50.344 29.9121C45.7541 26.253 40.5534 22.9845 35.2327 20.4492ZM17.4758 32.1201C15.2596 34.067 13.2202 36.1065 11.4241 38.1992C13.2205 40.2924 15.2586 42.3321 17.4739 44.2783C17.1695 40.1738 17.184 36.0537 17.4758 32.1201ZM52.9875 32.125C53.2869 36.1473 53.287 40.2527 52.9875 44.2725C55.2118 42.3196 57.2511 40.2793 59.0393 38.1963C57.2544 36.1187 55.2149 34.0799 52.9875 32.125ZM47.3596 16.0898C44.3478 16.7947 41.2305 17.8383 38.1096 19.1572C42.2078 21.2448 46.2069 23.7373 49.8967 26.4932C49.3275 22.8113 48.4832 19.2915 47.3596 16.0898ZM23.1008 16.0898C21.9761 19.294 21.1316 22.8122 20.5627 26.4893C24.2593 23.7271 28.2589 21.2376 32.3489 19.1553C29.2437 17.8432 26.1296 16.7981 23.1008 16.0898Z" fill="#283954" stroke="black" stroke-width="0.2"/>
<path d="M35.2306 26.4031C28.3708 26.4031 23.1979 28.9952 23.1979 32.4324V43.3473C23.1979 46.7846 28.3708 49.3768 35.2306 49.3768C42.0903 49.3768 47.2632 46.7846 47.2632 43.3473V32.4324C47.2633 28.9953 42.0904 26.4031 35.2306 26.4031ZM45.028 37.8901C45.028 39.6812 40.8382 41.6841 35.2308 41.6841C29.6233 41.6841 25.4334 39.6812 25.4334 37.8901V36.0202C30.101 39.2827 40.3623 39.2815 45.028 36.0202V37.8901ZM35.2306 28.6384C40.8381 28.6384 45.0279 30.6415 45.0279 32.4324C45.0279 34.2234 40.8381 36.2266 35.2306 36.2266C29.6232 36.2266 25.4332 34.2235 25.4332 32.4324C25.4332 30.6414 29.6233 28.6384 35.2306 28.6384ZM35.2306 47.1417C29.6232 47.1417 25.4332 45.1385 25.4332 43.3475V41.4777C30.1008 44.7401 40.3621 44.7389 45.0279 41.4777V43.3475C45.028 45.1385 40.8381 47.1417 35.2306 47.1417ZM28.3066 7.95488C30.1553 7.95488 31.6595 6.45083 31.6595 4.60195C31.6595 2.75307 30.1553 1.24902 28.3066 1.24902C26.4579 1.24902 24.9537 2.75307 24.9537 4.60195C24.9537 6.45083 26.4577 7.95488 28.3066 7.95488ZM28.3066 3.48431C28.923 3.48431 29.4243 3.98561 29.4243 4.60195C29.4243 5.21829 28.923 5.71959 28.3066 5.71959C27.6903 5.71959 27.189 5.21829 27.189 4.60195C27.189 3.98561 27.6903 3.48431 28.3066 3.48431ZM65.8965 43.005C64.0478 43.005 62.5436 44.5092 62.5436 46.358C62.5436 48.2067 64.0478 49.7109 65.8965 49.7109C67.7452 49.7109 69.2494 48.2067 69.2494 46.358C69.2494 44.5092 67.7452 43.005 65.8965 43.005ZM65.8965 47.4756C65.2802 47.4756 64.7789 46.9743 64.7789 46.358C64.7789 45.7416 65.2802 45.2403 65.8965 45.2403C66.5129 45.2403 67.0142 45.7416 67.0142 46.358C67.0142 46.9743 66.5127 47.4756 65.8965 47.4756ZM40.9865 69.4945C39.1378 69.4945 37.6336 70.9987 37.6336 72.8474C37.6336 74.6962 39.1378 76.2004 40.9865 76.2004C42.8352 76.2004 44.3394 74.6962 44.3394 72.8474C44.3394 70.9987 42.8354 69.4945 40.9865 69.4945ZM40.9865 73.9651C40.3702 73.9651 39.8689 73.4638 39.8689 72.8474C39.8689 72.2311 40.3702 71.7298 40.9865 71.7298C41.6028 71.7298 42.1041 72.2311 42.1041 72.8474C42.1041 73.4638 41.6028 73.9651 40.9865 73.9651ZM64.5129 14.6649C64.5129 12.816 63.0087 11.312 61.1599 11.312C59.3112 11.312 57.807 12.816 57.807 14.6649C57.807 16.5138 59.3112 18.0178 61.1599 18.0178C63.0087 18.0178 64.5129 16.5136 64.5129 14.6649ZM61.1599 15.7825C60.5436 15.7825 60.0423 15.2812 60.0423 14.6649C60.0423 14.0486 60.5436 13.5473 61.1599 13.5473C61.7763 13.5473 62.2776 14.0486 62.2776 14.6649C62.2776 15.2812 61.7763 15.7825 61.1599 15.7825ZM15.7416 59.1854C13.8929 59.1854 12.3887 60.6896 12.3887 62.5383C12.3887 64.387 13.8929 65.8912 15.7416 65.8912C17.5904 65.8912 19.0946 64.387 19.0946 62.5383C19.0946 60.6896 17.5904 59.1854 15.7416 59.1854ZM15.7416 63.6559C15.1253 63.6559 14.624 63.1546 14.624 62.5383C14.624 61.922 15.1253 61.4207 15.7416 61.4207C16.358 61.4207 16.8593 61.922 16.8593 62.5383C16.8593 63.1546 16.358 63.6559 15.7416 63.6559ZM3.35293 23.3731C1.5042 23.3731 0 24.8772 0 26.7261C0 28.5749 1.5042 30.079 3.35293 30.079C5.20166 30.079 6.70586 28.5749 6.70586 26.7261C6.70586 24.8772 5.20181 23.3731 3.35293 23.3731ZM3.35293 27.8437C2.73659 27.8437 2.23529 27.3424 2.23529 26.7261C2.23529 26.1097 2.73659 25.6084 3.35293 25.6084C3.96927 25.6084 4.47057 26.1097 4.47057 26.7261C4.47057 27.3424 3.96927 27.8437 3.35293 27.8437Z" fill="#2185D5"/>
</svg>
