<svg width="76" height="76" viewBox="0 0 76 76" fill="none" xmlns="http://www.w3.org/2000/svg">
<path d="M70.0625 11.875H55.0881C55.048 11.6562 54.9448 11.454 54.7912 11.2931L48.0819 4.58375C47.8577 4.36127 47.5546 4.23643 47.2387 4.23643C46.9229 4.23643 46.6198 4.36127 46.3956 4.58375L44.7806 6.19875C44.4956 6.08 44.2225 5.96125 43.9375 5.85437V3.5625C43.9375 3.24756 43.8124 2.94551 43.5897 2.72281C43.367 2.50011 43.0649 2.375 42.75 2.375H33.25C32.9351 2.375 32.633 2.50011 32.4103 2.72281C32.1876 2.94551 32.0625 3.24756 32.0625 3.5625V5.85437C31.7775 5.96125 31.5044 6.08 31.2194 6.19875L29.6044 4.58375C29.3802 4.36127 29.0771 4.23643 28.7612 4.23643C28.4454 4.23643 28.1423 4.36127 27.9181 4.58375L21.2088 11.2931C21.0552 11.454 20.952 11.6562 20.9119 11.875H5.9375C4.99353 11.8778 4.08903 12.2541 3.42155 12.9215C2.75406 13.589 2.37782 14.4935 2.375 15.4375V55.8125C2.37782 56.7565 2.75406 57.661 3.42155 58.3285C4.08903 58.9959 4.99353 59.3722 5.9375 59.375H30.875V64.125H24.9375C24.6226 64.125 24.3205 64.2501 24.0978 64.4728C23.8751 64.6955 23.75 64.9976 23.75 65.3125V72.4375C23.75 72.7524 23.8751 73.0545 24.0978 73.2772C24.3205 73.4999 24.6226 73.625 24.9375 73.625H51.0625C51.3774 73.625 51.6795 73.4999 51.9022 73.2772C52.1249 73.0545 52.25 72.7524 52.25 72.4375V65.3125C52.25 64.9976 52.1249 64.6955 51.9022 64.4728C51.6795 64.2501 51.3774 64.125 51.0625 64.125H45.125V59.375H70.0625C71.0065 59.3722 71.911 58.9959 72.5785 58.3285C73.2459 57.661 73.6222 56.7565 73.625 55.8125V15.4375C73.6222 14.4935 73.2459 13.589 72.5785 12.9215C71.911 12.2541 71.0065 11.8778 70.0625 11.875ZM25.1037 13.5138L23.75 12.16V12.1125L28.7612 7.10125L30.1387 8.47875C30.3154 8.65682 30.5445 8.77363 30.7924 8.8121C31.0402 8.85056 31.2939 8.80865 31.5163 8.6925C32.1904 8.34318 32.8937 8.05313 33.6181 7.82563C33.857 7.74547 34.0646 7.59228 34.2116 7.38771C34.3586 7.18315 34.4376 6.93755 34.4375 6.68563V4.75H41.5625V6.68563C41.5624 6.93755 41.6414 7.18315 41.7884 7.38771C41.9354 7.59228 42.143 7.74547 42.3819 7.82563C43.1063 8.05313 43.8096 8.34318 44.4837 8.6925C44.7061 8.80865 44.9598 8.85056 45.2076 8.8121C45.4555 8.77363 45.6846 8.65682 45.8612 8.47875L47.2387 7.10125L52.25 12.1125V12.16L50.8963 13.5138C50.7182 13.6904 50.6014 13.9195 50.5629 14.1674C50.5244 14.4152 50.5663 14.6689 50.6825 14.8912C51.0318 15.5654 51.3219 16.2687 51.5494 16.9931C51.6295 17.232 51.7827 17.4396 51.9873 17.5866C52.1919 17.7336 52.4375 17.8126 52.6894 17.8125H54.625V24.9375H52.6894C52.4375 24.9374 52.1919 25.0164 51.9873 25.1634C51.7827 25.3104 51.6295 25.518 51.5494 25.7569C51.3219 26.4813 51.0318 27.1846 50.6825 27.8587C50.5663 28.0811 50.5244 28.3348 50.5629 28.5826C50.6014 28.8305 50.7182 29.0596 50.8963 29.2363L52.2738 30.6138L47.2387 35.6488L45.8612 34.2713C45.6846 34.0932 45.4555 33.9764 45.2076 33.9379C44.9598 33.8994 44.7061 33.9414 44.4837 34.0575C43.8096 34.4068 43.1063 34.6969 42.3819 34.9244C42.143 35.0045 41.9354 35.1577 41.7884 35.3623C41.6414 35.5669 41.5624 35.8125 41.5625 36.0644V38H34.4375V36.0644C34.4376 35.8125 34.3586 35.5669 34.2116 35.3623C34.0646 35.1577 33.857 35.0045 33.6181 34.9244C32.8937 34.6969 32.1904 34.4068 31.5163 34.0575C31.2939 33.9414 31.0402 33.8994 30.7924 33.9379C30.5445 33.9764 30.3154 34.0932 30.1387 34.2713L28.7612 35.6488L23.7262 30.6138L25.1037 29.2363C25.2818 29.0596 25.3986 28.8305 25.4371 28.5826C25.4756 28.3348 25.4336 28.0811 25.3175 27.8587C24.9682 27.1846 24.6781 26.4813 24.4506 25.7569C24.3705 25.518 24.2173 25.3104 24.0127 25.1634C23.8081 25.0164 23.5625 24.9374 23.3106 24.9375H21.375V17.8125H23.3106C23.5625 17.8126 23.8081 17.7336 24.0127 17.5866C24.2173 17.4396 24.3705 17.232 24.4506 16.9931C24.6781 16.2687 24.9682 15.5654 25.3175 14.8912C25.4336 14.6689 25.4756 14.4152 25.4371 14.1674C25.3986 13.9195 25.2818 13.6904 25.1037 13.5138ZM49.875 66.5V71.25H26.125V66.5H49.875ZM33.25 64.125V59.375H42.75V64.125H33.25ZM71.25 55.8125C71.25 56.1274 71.1249 56.4295 70.9022 56.6522C70.6795 56.8749 70.3774 57 70.0625 57H5.9375C5.62256 57 5.32051 56.8749 5.09781 56.6522C4.87511 56.4295 4.75 56.1274 4.75 55.8125V52.25H71.25V55.8125ZM71.25 49.875H4.75V15.4375C4.75 15.1226 4.87511 14.8205 5.09781 14.5978C5.32051 14.3751 5.62256 14.25 5.9375 14.25H22.4794L22.8237 14.5944C22.705 14.8794 22.5863 15.1525 22.4794 15.4375H20.1875C19.8726 15.4375 19.5705 15.5626 19.3478 15.7853C19.1251 16.008 19 16.3101 19 16.625V26.125C19 26.4399 19.1251 26.742 19.3478 26.9647C19.5705 27.1874 19.8726 27.3125 20.1875 27.3125H22.4794C22.5863 27.5975 22.705 27.8706 22.8237 28.1556L21.2088 29.7706C20.9863 29.9948 20.8614 30.2979 20.8614 30.6138C20.8614 30.9296 20.9863 31.2327 21.2088 31.4569L27.9181 38.1662C28.1423 38.3887 28.4454 38.5136 28.7612 38.5136C29.0771 38.5136 29.3802 38.3887 29.6044 38.1662L31.2194 36.5513C31.5044 36.67 31.7775 36.7887 32.0625 36.8956V39.1875C32.0625 39.5024 32.1876 39.8045 32.4103 40.0272C32.633 40.2499 32.9351 40.375 33.25 40.375H42.75C43.0649 40.375 43.367 40.2499 43.5897 40.0272C43.8124 39.8045 43.9375 39.5024 43.9375 39.1875V36.8956C44.2225 36.7887 44.4956 36.67 44.7806 36.5513L46.3956 38.1662C46.6198 38.3887 46.9229 38.5136 47.2387 38.5136C47.5546 38.5136 47.8577 38.3887 48.0819 38.1662L54.7912 31.4569C55.0137 31.2327 55.1386 30.9296 55.1386 30.6138C55.1386 30.2979 55.0137 29.9948 54.7912 29.7706L53.1762 28.1556C53.295 27.8706 53.4137 27.5975 53.5206 27.3125H55.8125C56.1274 27.3125 56.4295 27.1874 56.6522 26.9647C56.8749 26.742 57 26.4399 57 26.125V16.625C57 16.3101 56.8749 16.008 56.6522 15.7853C56.4295 15.5626 56.1274 15.4375 55.8125 15.4375H53.5206C53.4137 15.1525 53.295 14.8794 53.1762 14.5944L53.5206 14.25H70.0625C70.3774 14.25 70.6795 14.3751 70.9022 14.5978C71.1249 14.8205 71.25 15.1226 71.25 15.4375V49.875Z" fill="black"/>
<path d="M8.3125 17.8125H10.6875V15.4375H7.125C6.81006 15.4375 6.50801 15.5626 6.28531 15.7853C6.06261 16.008 5.9375 16.3101 5.9375 16.625V20.1875H8.3125V17.8125ZM38 32.0625C40.1138 32.0625 42.1801 31.4357 43.9377 30.2613C45.6952 29.087 47.0651 27.4178 47.874 25.4649C48.6829 23.512 48.8945 21.3631 48.4821 19.29C48.0698 17.2168 47.0519 15.3125 45.5572 13.8178C44.0625 12.3231 42.1582 11.3052 40.085 10.8929C38.0119 10.4805 35.863 10.6921 33.9101 11.501C31.9572 12.31 30.288 13.6798 29.1137 15.4373C27.9393 17.1949 27.3125 19.2612 27.3125 21.375C27.316 24.2084 28.4431 26.9248 30.4466 28.9284C32.4502 30.9319 35.1666 32.059 38 32.0625ZM38 13.0625C39.6441 13.0625 41.2512 13.55 42.6182 14.4634C43.9852 15.3768 45.0506 16.675 45.6797 18.1939C46.3089 19.7129 46.4735 21.3842 46.1528 22.9967C45.832 24.6092 45.0404 26.0903 43.8778 27.2528C42.7153 28.4154 41.2342 29.207 39.6217 29.5278C38.0092 29.8485 36.3379 29.6839 34.8189 29.0548C33.3 28.4256 32.0018 27.3602 31.0884 25.9932C30.175 24.6262 29.6875 23.0191 29.6875 21.375C29.69 19.1712 30.5666 17.0583 32.125 15.5C33.6833 13.9416 35.7962 13.065 38 13.0625Z" fill="#2185D5"/>
<path d="M37.9999 28.5C39.4091 28.5 40.7866 28.0821 41.9583 27.2992C43.13 26.5163 44.0432 25.4035 44.5825 24.1016C45.1218 22.7997 45.2629 21.3671 44.988 19.985C44.7131 18.6029 44.0345 17.3333 43.038 16.3369C42.0416 15.3404 40.772 14.6618 39.3899 14.3869C38.0078 14.112 36.5752 14.2531 35.2733 14.7924C33.9713 15.3316 32.8586 16.2449 32.0757 17.4166C31.2928 18.5883 30.8749 19.9658 30.8749 21.375C30.8768 23.2641 31.628 25.0753 32.9638 26.4111C34.2996 27.7468 36.1108 28.4981 37.9999 28.5ZM37.9999 16.625C38.9393 16.625 39.8577 16.9036 40.6388 17.4255C41.42 17.9475 42.0288 18.6893 42.3883 19.5573C42.7478 20.4252 42.8419 21.3803 42.6586 22.3017C42.4753 23.2231 42.0229 24.0695 41.3586 24.7338C40.6943 25.3981 39.848 25.8505 38.9266 26.0337C38.0051 26.217 37.0501 26.1229 36.1821 25.7634C35.3142 25.4039 34.5723 24.7951 34.0504 24.014C33.5285 23.2328 33.2499 22.3145 33.2499 21.375C33.2499 20.1152 33.7503 18.907 34.6411 18.0162C35.5319 17.1254 36.7401 16.625 37.9999 16.625ZM63.9444 23.1206C63.8305 22.9587 63.6794 22.8265 63.5037 22.7352C63.328 22.644 63.133 22.5964 62.935 22.5964C62.737 22.5964 62.542 22.644 62.3663 22.7352C62.1906 22.8265 62.0395 22.9587 61.9256 23.1206L55.9881 32.6206C55.8756 32.8007 55.8134 33.0077 55.808 33.22C55.8026 33.4323 55.8543 33.6422 55.9576 33.8277C56.061 34.0133 56.2122 34.1677 56.3955 34.275C56.5788 34.3822 56.7875 34.4384 56.9999 34.4375H59.3749V40.375C59.3749 40.6899 59.5 40.992 59.7227 41.2147C59.9454 41.4374 60.2474 41.5625 60.5624 41.5625H65.3124C65.6273 41.5625 65.9294 41.4374 66.1521 41.2147C66.3748 40.992 66.4999 40.6899 66.4999 40.375V34.4375H68.8749C69.0869 34.4375 69.295 34.3808 69.4776 34.2732C69.6602 34.1656 69.8108 34.0111 69.9135 33.8257C70.0163 33.6403 70.0675 33.4307 70.062 33.2188C70.0564 33.0069 69.9942 32.8004 69.8819 32.6206L63.9444 23.1206ZM65.3124 32.0625C64.9974 32.0625 64.6954 32.1876 64.4727 32.4103C64.25 32.633 64.1249 32.9351 64.1249 33.25V39.1875H61.7499V33.25C61.7499 32.9351 61.6248 32.633 61.4021 32.4103C61.1794 32.1876 60.8773 32.0625 60.5624 32.0625H59.1374L62.9374 25.9908L66.7374 32.0625H65.3124ZM15.2569 30.2456C15.143 30.0837 14.9919 29.9515 14.8162 29.8602C14.6405 29.769 14.4455 29.7214 14.2475 29.7214C14.0495 29.7214 13.8545 29.769 13.6788 29.8602C13.5031 29.9515 13.352 30.0837 13.2381 30.2456L7.30063 39.7456C7.18806 39.9257 7.12586 40.1327 7.1205 40.345C7.11513 40.5573 7.16681 40.7672 7.27013 40.9527C7.37346 41.1383 7.52465 41.2927 7.70797 41.4C7.89128 41.5072 8.1 41.5634 8.31238 41.5625H10.6874V47.5C10.6874 47.8149 10.8125 48.117 11.0352 48.3397C11.2579 48.5624 11.5599 48.6875 11.8749 48.6875H16.6249C16.9398 48.6875 17.2419 48.5624 17.4646 48.3397C17.6873 48.117 17.8124 47.8149 17.8124 47.5V41.5625H20.1874C20.3994 41.5625 20.6075 41.5058 20.7901 41.3982C20.9727 41.2906 21.1233 41.1361 21.226 40.9507C21.3288 40.7653 21.38 40.5557 21.3745 40.3438C21.3689 40.1319 21.3067 39.9254 21.1944 39.7456L15.2569 30.2456ZM16.6249 39.1875C16.3099 39.1875 16.0079 39.3126 15.7852 39.5353C15.5625 39.758 15.4374 40.0601 15.4374 40.375V46.3125H13.0624V40.375C13.0624 40.0601 12.9373 39.758 12.7146 39.5353C12.4919 39.3126 12.1898 39.1875 11.8749 39.1875H10.4499L14.2499 33.1158L18.0499 39.1875H16.6249Z" fill="#2185D5"/>
<path d="M8.3125 22.5625H5.9375V24.9375H8.3125V22.5625Z" fill="black"/>
</svg>
