<svg width="76" height="76" viewBox="0 0 76 76" fill="none" xmlns="http://www.w3.org/2000/svg">
<path d="M52.6072 71.1448C42.8693 75.7598 33.1312 75.7598 23.3931 71.1448C23.3931 63.0723 29.936 56.5293 37.9916 56.5293C46.0641 56.5291 52.6072 63.0721 52.6072 71.1448Z" fill="#2185D5"/>
<path d="M52.6035 71.141C42.8641 75.7562 33.1359 75.7562 23.3965 71.141C23.3965 70.5527 23.4303 69.9759 23.5096 69.4102C27.6949 70.9599 31.869 71.6613 36.0545 71.5029C43.7918 71.2201 46.7328 62.8833 43.6107 57.6572C48.8932 59.8519 52.6035 65.0663 52.6035 71.141Z" fill="white"/>
<path d="M73.0665 53.7435C66.5681 56.8232 60.0698 56.8232 53.5713 53.7435C53.5713 48.3565 57.9376 43.9902 63.3133 43.9902C68.7002 43.9902 73.0665 48.3565 73.0665 53.7435ZM22.4285 53.7435C15.9301 56.8232 9.43179 56.8232 2.93335 53.7435C2.93335 48.3565 7.29964 43.9902 12.6753 43.9902C18.0622 43.9902 22.4285 48.3565 22.4285 53.7435Z" fill="#2185D5"/>
<path d="M35.2681 30.7107L35.2677 8.51198L31.3335 8.51213L37.9998 1.38965L44.6665 8.51168L40.7324 8.51183L40.7327 24.6412" fill="#2185D5"/>
<path d="M48.5004 30.7103L48.4999 18.1699L45.1399 18.17L50.8334 12.0869L56.5271 18.1696L53.1671 18.1697L53.1674 25.5266" fill="white"/>
<path d="M22.8334 30.7103L22.8329 18.1699L19.4729 18.17L25.1664 12.0869L30.8601 18.1696L27.5001 18.1697L27.5004 25.5266" fill="white"/>
<path d="M43.5653 43.0323V46.0459C43.5653 49.1196 41.0736 51.6113 37.9999 51.6113C34.9262 51.6113 32.4345 49.1196 32.4345 46.0459V43.0323C32.4345 39.9586 34.9262 37.467 37.9999 37.467C41.0736 37.4671 43.5653 39.9588 43.5653 43.0323ZM67.5508 33.5249V35.8165C67.5508 38.1538 65.6562 40.0485 63.3189 40.0485C60.9816 40.0485 59.0869 38.1538 59.0869 35.8165V33.5249C59.0869 31.1876 60.9816 29.293 63.3189 29.293C65.6562 29.293 67.5508 31.1878 67.5508 33.5249ZM16.9129 33.5249V35.8165C16.9129 38.1538 15.0182 40.0485 12.6809 40.0485C10.3436 40.0485 8.44897 38.1538 8.44897 35.8165V33.5249C8.44897 31.1876 10.3436 29.293 12.6809 29.293C15.0181 29.293 16.9129 31.1878 16.9129 33.5249Z" fill="white"/>
<path d="M38.0001 36.3348C34.3071 36.3348 31.3036 39.3384 31.3036 43.0313V46.0448C31.3036 49.7378 34.3072 52.7413 38.0001 52.7413C41.6929 52.7413 44.6965 49.7377 44.6965 46.0448V43.0313C44.6965 39.3384 41.693 36.3348 38.0001 36.3348ZM42.4342 46.0448C42.4342 48.4895 40.4447 50.479 38.0001 50.479C35.5554 50.479 33.5659 48.4895 33.5659 46.0448V43.0313C33.5659 40.5866 35.5554 38.5971 38.0001 38.5971C40.4447 38.5971 42.4342 40.5866 42.4342 43.0313V46.0448ZM37.9912 55.397C29.3184 55.397 22.2618 62.4613 22.2618 71.144C22.2618 71.5814 22.5137 71.9791 22.9081 72.1658C32.9196 76.9121 43.0769 76.9139 53.0922 72.1658C53.4866 71.9791 53.7385 71.5814 53.7385 71.144C53.7383 62.4613 46.6739 55.397 37.9912 55.397ZM24.543 70.4293C24.9153 63.3252 30.8043 57.6593 37.9913 57.6593C45.1871 57.6593 51.085 63.3252 51.4573 70.4293C42.5247 74.4614 33.4754 74.4614 24.543 70.4293ZM63.3191 41.1788C66.2762 41.1788 68.6822 38.7727 68.6822 35.8156V33.5244C68.6822 30.5673 66.2762 28.1612 63.3191 28.1612C60.3619 28.1612 57.9559 30.5673 57.9559 33.5244V35.8156C57.9559 38.7729 60.3619 41.1788 63.3191 41.1788ZM60.2183 33.5246C60.2183 31.8146 61.6091 30.4237 63.3192 30.4237C65.0292 30.4237 66.4201 31.8144 66.4201 33.5246V35.8157C66.4201 37.5257 65.0294 38.9166 63.3192 38.9166C61.6092 38.9166 60.2183 37.5259 60.2183 35.8157V33.5246ZM63.3136 42.8589C57.3185 42.8589 52.4404 47.7416 52.4404 53.7433C52.4404 54.1807 52.6923 54.5784 53.0867 54.7651C59.8752 57.9826 66.7601 57.9843 73.5517 54.7651C73.9461 54.5784 74.198 54.1807 74.198 53.7433C74.1979 47.7416 69.3152 42.8589 63.3136 42.8589ZM54.7313 53.0297C55.0947 48.6078 58.8054 45.1214 63.3136 45.1214C67.8272 45.1214 71.5422 48.6078 71.9068 53.0297C66.1359 55.5726 60.5022 55.5726 54.7313 53.0297ZM12.6811 41.1788C15.6383 41.1788 18.0443 38.7727 18.0443 35.8156V33.5244C18.0443 30.5673 15.6383 28.1612 12.6811 28.1612C9.72391 28.1612 7.31789 30.5673 7.31789 33.5244V35.8156C7.31789 38.7729 9.72391 41.1788 12.6811 41.1788ZM9.58022 33.5246C9.58022 31.8146 10.9709 30.4237 12.6811 30.4237C14.3912 30.4237 15.7819 31.8144 15.7819 33.5246V35.8157C15.7819 37.5257 14.3912 38.9166 12.6811 38.9166C10.9709 38.9166 9.58022 37.5259 9.58022 35.8157V33.5246ZM23.5598 53.7433C23.5598 47.7416 18.6771 42.8589 12.6754 42.8589C6.68035 42.8589 1.80225 47.7416 1.80225 53.7433C1.80225 54.1807 2.05414 54.5784 2.44854 54.7651C9.23704 57.9826 16.122 57.9843 22.9136 54.7651C23.308 54.5784 23.5598 54.1807 23.5598 53.7433ZM4.09338 53.0297C4.45675 48.6078 8.16739 45.1214 12.6756 45.1214C17.1893 45.1214 20.9042 48.6078 21.2688 53.0297C15.498 55.5726 9.86418 55.5726 4.09338 53.0297ZM31.3334 9.64277H34.1371V30.7099C34.1371 31.3351 34.643 31.8412 35.2684 31.8412C35.8937 31.8412 36.3996 31.3353 36.3996 30.7099V8.51153C36.3996 7.88631 35.8937 7.38029 35.2684 7.38029H33.9416L38.0001 3.04458L42.0586 7.38044H40.7319C40.1076 7.38044 39.6007 7.88735 39.6007 8.51168L39.6017 24.6409C39.6017 25.2661 40.1088 25.7721 40.733 25.7721C41.3582 25.7721 41.8642 25.2651 41.8642 24.6409L41.8632 9.64277H44.6668C45.6522 9.64277 46.1683 8.4621 45.4932 7.73832L38.8264 0.616439C38.3979 0.159104 37.6024 0.159104 37.1739 0.616439L30.5072 7.73817C29.8323 8.46166 30.3474 9.64277 31.3334 9.64277ZM45.1396 19.3009H47.3688V30.7099C47.3688 31.3351 47.8747 31.8412 48.5001 31.8412C49.1255 31.8412 49.6313 31.3353 49.6313 30.7099V18.1698C49.6313 17.5445 49.1255 17.0385 48.5001 17.0385H47.7478L50.8331 13.7422L53.9195 17.0385H53.1673C52.542 17.0385 52.036 17.5444 52.036 18.1698V25.5269C52.036 26.1521 52.5419 26.6582 53.1673 26.6582C53.7926 26.6582 54.2985 26.1523 54.2985 25.5269V19.301H56.5277C57.5131 19.301 58.0292 18.1203 57.3541 17.3966L51.6593 11.314C51.2307 10.8567 50.4353 10.8567 50.0067 11.314L44.3133 17.3964C43.6385 18.1197 44.1535 19.3009 45.1396 19.3009Z" fill="black"/>
<path d="M19.4726 19.3014H21.7018V30.7104C21.7018 31.3356 22.2077 31.8417 22.833 31.8417C23.4583 31.8417 23.9643 31.3358 23.9643 30.7104V18.1703C23.9643 17.545 23.4584 17.039 22.833 17.039H22.0807L25.166 13.7427L28.2525 17.039H27.5002C26.875 17.039 26.369 17.5449 26.369 18.1703V25.5274C26.369 26.1526 26.8748 26.6587 27.5002 26.6587C28.1254 26.6587 28.6314 26.1528 28.6314 25.5274V19.3015H30.8607C31.846 19.3015 32.3621 18.1208 31.687 17.3971L25.9925 11.3147C25.564 10.8573 24.7685 10.8573 24.34 11.3147L18.6465 17.3971C17.9714 18.1202 18.4865 19.3014 19.4726 19.3014Z" fill="black"/>
</svg>
