<svg width="66" height="76" viewBox="0 0 66 76" fill="none" xmlns="http://www.w3.org/2000/svg">
<path d="M38.856 27.8664L29.5052 40.2631L25.4817 56.6267L29.5052 69.6001V69.6612L45.897 64.0031L58.2655 53.6836V27.2227L38.856 27.8664Z" fill="white"/>
<path d="M48.4303 9.57617C52.4637 9.57617 55.7321 12.8461 55.7321 16.878C55.7321 20.9115 52.4637 24.1813 48.4303 24.1813C44.3968 24.1813 41.1284 20.9115 41.1284 16.878C41.1284 12.8461 44.3968 9.57617 48.4303 9.57617ZM52.0812 16.878C52.0812 14.8629 50.4471 13.2271 48.4303 13.2271C46.4135 13.2271 44.7793 14.8629 44.7793 16.878C44.7793 18.8948 46.4135 20.5304 48.4303 20.5304C50.4471 20.5304 52.0812 18.8948 52.0812 16.878Z" fill="#2185D5"/>
<path d="M29.5051 8.30762L18.7207 14.2996L34.9814 24.8113L35.7265 25.3328L39.1353 22.3897L35.7698 11.7887L29.5051 8.30762Z" fill="white"/>
<path d="M29.5052 40.2628V69.5998L12.2937 63.0341L0.744873 53.6207V24.2866L0.746363 24.2852L17.2858 30.5007L29.5052 40.2628Z" fill="white"/>
<path d="M58.2655 53.6836V59.2762L29.5052 75.2538L27.2454 72.348L29.5052 69.6612L58.2655 53.6836Z" fill="#2185D5"/>
<path d="M29.5052 75.2539L0.744873 59.2763V53.6211L29.5052 69.6002C29.5052 71.6244 29.5052 72.1535 29.5052 75.2539Z" fill="white"/>
<path d="M40.291 34.2706L29.5052 40.2626L0.746338 24.2849L11.5307 18.293H11.5322L27.7915 24.3639L40.291 34.2706Z" fill="white"/>
<path d="M35.3094 23.5165L18.7208 14.2998L11.5322 18.2935L40.291 34.2711V54.2438L44.2445 49.52L47.4811 50.2502V30.5009L35.3094 23.5165Z" fill="#2185D5"/>
<path d="M64.6733 14.6663C64.7701 15.389 64.8223 16.1282 64.8223 16.8777C64.8223 17.6288 64.7701 18.3679 64.6733 19.0906C63.2114 18.7538 61.7078 19.5854 61.2355 21.0398C60.7631 22.4942 61.4918 24.0499 62.8732 24.6355C62.1683 25.9469 61.2906 27.1495 60.2698 28.2149C59.2972 27.0954 57.5871 26.8693 56.3447 27.7724C55.1079 28.6709 54.7815 30.3578 55.5549 31.6453C54.2406 32.2801 52.8279 32.7451 51.3452 33.0118C51.1793 31.1199 49.2719 29.883 47.4812 30.5009C46.4097 30.8674 45.6185 31.8405 45.5156 33.0118C44.1107 32.7601 42.6827 32.3086 41.3059 31.6453C42.0793 30.3578 41.753 28.6709 40.5161 27.7724C39.2793 26.8738 37.576 27.0839 36.591 28.2149C35.5702 27.1495 34.6925 25.9469 33.9877 24.6355C34.548 24.3986 35.001 24.0007 35.3095 23.5164H35.3109C36.7132 21.309 34.7284 18.5053 32.1876 19.0906C31.9965 17.665 31.9815 16.204 32.1876 14.6663C34.0139 15.0852 35.7792 13.6954 35.7699 11.7888C35.761 10.6473 35.077 9.58332 33.9877 9.11988C34.6925 7.81002 35.5702 6.60745 36.591 5.54198C37.576 6.67302 39.2793 6.88313 40.5161 5.98456C41.753 5.08599 42.0793 3.39911 41.3059 2.1116C42.6202 1.47679 44.0329 1.01186 45.5156 0.745117C45.6468 2.23976 46.9015 3.41401 48.4304 3.41401C49.9593 3.41401 51.2141 2.23976 51.3452 0.745117C52.8279 1.01186 54.2406 1.47679 55.5549 2.1116C54.7815 3.39911 55.1079 5.08599 56.3447 5.98456C57.5816 6.88313 59.2848 6.67302 60.2698 5.54198C61.2906 6.60745 62.1683 7.81002 62.8732 9.11988C61.4918 9.70701 60.7631 11.2627 61.2355 12.7172C61.7078 14.1716 63.2114 15.0016 64.6733 14.6663ZM55.4551 16.8777C55.4551 12.9988 52.3108 9.85304 48.4304 9.85304C44.55 9.85304 41.4057 12.9988 41.4057 16.8777C41.4057 20.7581 44.55 23.9039 48.4304 23.9039C52.3108 23.9039 55.4551 20.7581 55.4551 16.8777Z" fill="white"/>
<path d="M65.4115 14.5663C65.3534 14.1349 64.9364 13.8412 64.5061 13.9399C63.4171 14.1905 62.2909 13.5527 61.9448 12.4875C61.5986 11.4218 62.1342 10.2439 63.1645 9.80657C63.568 9.63521 63.7371 9.15343 63.5293 8.76748C62.796 7.40501 61.8804 6.14657 60.8079 5.0267C60.4992 4.70438 59.99 4.72867 59.708 5.05278C58.9734 5.89577 57.6887 6.04047 56.7827 5.38255C55.8758 4.7236 55.6172 3.45576 56.1941 2.49609C56.4201 2.11983 56.2733 1.6315 55.8798 1.44135C54.4839 0.76675 53.0026 0.285723 51.4774 0.0119781C51.0461 -0.0653618 50.6415 0.244445 50.6035 0.680171C50.5058 1.79512 49.5512 2.66866 48.4306 2.66866C47.31 2.66866 46.3553 1.79527 46.2576 0.680171C46.2196 0.244296 45.8146 -0.0658089 45.3838 0.0119781C43.8586 0.285723 42.3772 0.766601 40.9813 1.44135C40.5876 1.6315 40.4409 2.11983 40.6671 2.49609C41.2439 3.45576 40.9854 4.7236 40.0784 5.38255C39.1721 6.04076 37.8874 5.89562 37.1531 5.05278C36.8783 4.73701 36.3702 4.69573 36.0532 5.0267C34.9809 6.14657 34.0652 7.40501 33.3318 8.76748C33.167 9.07341 33.2399 9.4388 33.4777 9.66292L29.8673 7.6567C29.6423 7.53153 29.3687 7.53168 29.1436 7.65656C27.616 8.50521 0.356896 23.6504 0.382527 23.6361C0.140672 23.7714 0 24.0182 0 24.2857V59.2759C0 59.5464 0.146633 59.7959 0.383272 59.9273L29.1436 75.9053C29.382 76.038 29.69 76.0405 29.9457 75.8535C31.0903 75.2629 35.9571 72.4921 58.6274 59.9276C58.864 59.7962 59.0106 59.5467 59.0106 59.2762V28.1783C59.2708 28.3021 59.5098 28.4769 59.708 28.7043C60.0017 29.0419 60.5127 29.038 60.8079 28.7304C61.8804 27.6105 62.796 26.3519 63.5293 24.9895C63.7376 24.6028 63.5674 24.1218 63.1645 23.9504C62.1343 23.513 61.5986 22.3355 61.9448 21.2696C62.2909 20.2044 63.4159 19.566 64.5061 19.8172C64.9354 19.9156 65.3534 19.6231 65.4115 19.1908C65.6262 17.6009 65.6122 16.0523 65.4115 14.5663ZM29.5052 9.16029L34.9847 12.2052C34.7596 13.4533 33.5229 14.2093 32.3547 13.94C31.9251 13.8414 31.5074 14.1346 31.4493 14.5665C31.2347 16.1565 31.2487 17.7051 31.4493 19.1909C31.5074 19.6225 31.9248 19.916 32.3547 19.8174C33.9001 19.4611 35.3557 20.8698 34.9549 22.4665L20.2549 14.2999L29.5052 9.16029ZM40.981 32.3158C41.2168 32.4298 41.4558 32.5362 41.6963 32.639L40.2906 33.4198L13.0652 18.2946L18.7209 15.1523L34.1206 23.7076C33.9905 23.8026 33.8498 23.8857 33.6968 23.9507C33.2918 24.1228 33.1247 24.6049 33.332 24.9898C34.0653 26.3522 34.9807 27.6108 36.0533 28.7307C36.3629 29.0536 36.8719 29.028 37.1532 28.7046C37.8879 27.8616 39.1726 27.7169 40.0786 28.3749C40.9855 29.0338 41.2441 30.3016 40.6672 31.2612C40.4409 31.6371 40.5872 32.125 40.981 32.3158ZM56.1941 31.261C55.4575 30.0358 56.0987 28.3892 57.5205 28.0297V53.2454L30.2503 68.3953V40.7017L39.5453 35.5384V54.2444C39.5453 54.9249 40.4111 55.261 40.8617 54.7226L44.5239 50.3471C45.0769 50.4717 47.2417 50.9603 47.3217 50.9775C47.7788 51.0773 48.2263 50.7279 48.2263 50.2504V31.0984C49.4241 30.984 50.4991 31.8869 50.6034 33.0769C50.6412 33.5118 51.0449 33.8228 51.4772 33.7451C53.0027 33.4714 54.4839 32.9905 55.8798 32.3156C56.2732 32.1253 56.4203 31.6376 56.1941 31.261ZM11.5309 19.1468L38.7562 34.2721L29.5049 39.4111L2.28056 24.2864L11.5309 19.1468ZM1.49002 25.552L28.7602 40.7021V68.3332L1.49002 53.1831V25.552ZM46.7361 49.3182L44.4083 48.7933C44.136 48.7324 43.8525 48.8279 43.673 49.042L41.0354 52.1935V34.7108L43.5565 33.3103C44.1566 33.4881 44.7662 33.6346 45.3836 33.7453C45.8152 33.8226 46.2194 33.5128 46.2574 33.0771C46.2962 32.6351 46.4711 32.2325 46.7361 31.9057V49.3182ZM1.49002 54.8865C21.6468 66.0601 27.1697 69.182 28.7602 70.0381V73.9876L1.49002 58.8374V54.8865ZM30.2503 73.9874V70.1001L57.5205 54.95V58.8375L30.2503 73.9874ZM64.0154 18.2694C60.4583 18.2694 58.9947 22.8524 61.8577 24.9151C61.3803 25.7113 60.8325 26.464 60.2212 27.1644C57.3646 25.074 53.4597 27.9102 54.5704 31.2747C53.7159 31.6397 52.8304 31.9271 51.9247 32.1338C50.8443 28.7589 46.016 28.7601 44.9361 32.1338C44.0304 31.9271 43.1449 31.6398 42.2905 31.2747C43.4003 27.9128 39.4986 25.0726 36.6396 27.1644C36.0282 26.464 35.4805 25.7113 35.0031 24.9151C37.8794 22.843 36.39 18.2694 32.8455 18.2694C32.7613 17.3208 32.7648 16.3997 32.8455 15.4879C36.4028 15.4879 37.866 10.9051 35.0031 8.84199C35.4805 8.04594 36.0283 7.29325 36.6396 6.59287C39.4983 8.68522 43.4 5.84436 42.2905 2.48238C43.1449 2.11759 44.0305 1.82999 44.9361 1.62345C46.0165 4.99839 50.8448 4.9972 51.9247 1.62345C52.8303 1.82999 53.7159 2.11744 54.5704 2.48238C53.4605 5.84466 57.3625 8.68462 60.2212 6.59287C60.8327 7.2931 61.3803 8.04594 61.8577 8.84199C58.9877 10.9102 60.4655 15.4879 64.0154 15.4879C64.0993 16.4366 64.0963 17.3574 64.0154 18.2694Z" fill="black"/>
<path d="M48.4304 12.6211C46.0828 12.6211 44.1729 14.531 44.1729 16.8787C44.1729 19.2263 46.0828 21.1362 48.4304 21.1362C50.778 21.1362 52.688 19.2263 52.688 16.8787C52.688 14.531 50.778 12.6211 48.4304 12.6211ZM48.4304 19.6461C46.9045 19.6461 45.663 18.4046 45.663 16.8787C45.663 15.3527 46.9045 14.1113 48.4304 14.1113C49.9564 14.1113 51.1978 15.3527 51.1978 16.8787C51.1978 18.4046 49.9565 19.6461 48.4304 19.6461Z" fill="black"/>
<path d="M48.4304 9.10885C44.1458 9.10885 40.6602 12.5945 40.6602 16.8791C40.6602 21.1636 44.1458 24.6493 48.4304 24.6493C52.7149 24.6493 56.2006 21.1636 56.2006 16.8791C56.2006 12.5945 52.7149 9.10885 48.4304 9.10885ZM48.4304 23.1591C44.9676 23.1591 42.1503 20.3419 42.1503 16.8791C42.1503 13.4162 44.9676 10.599 48.4304 10.599C51.8931 10.599 54.7104 13.4162 54.7104 16.8791C54.7104 20.3419 51.8932 23.1591 48.4304 23.1591ZM44.1036 5.97383C44.206 6.2887 44.4979 6.48883 44.8121 6.48883C45.3169 6.48883 45.6774 5.99514 45.5208 5.51337L45.3399 4.95664C45.2128 4.56517 44.7918 4.35059 44.4011 4.4783C44.0098 4.60541 43.7956 5.02578 43.9227 5.4171L44.1036 5.97383ZM39.3959 9.39407L38.9222 9.04999C38.589 8.80799 38.1231 8.88205 37.8814 9.21495C37.6397 9.54786 37.7135 10.0138 38.0464 10.2557L38.5201 10.5998C38.8539 10.8421 39.3198 10.7665 39.5609 10.4348C39.8027 10.1019 39.7289 9.63593 39.3959 9.39407ZM36.7219 16.134H36.1364C35.7249 16.134 35.3914 16.4675 35.3914 16.8791C35.3914 17.2906 35.7249 17.6241 36.1364 17.6241H36.7219C37.1335 17.6241 37.467 17.2906 37.467 16.8791C37.467 16.4675 37.1335 16.134 36.7219 16.134ZM38.52 23.1583L38.0462 23.5026C37.7135 23.7444 37.6396 24.2104 37.8816 24.5433C38.124 24.8768 38.59 24.9494 38.9223 24.708L39.396 24.3637C39.7288 24.1219 39.8027 23.6559 39.5607 23.323C39.319 22.9904 38.853 22.9166 38.52 23.1583ZM45.0425 27.3059C44.6507 27.1785 44.2306 27.3928 44.1036 27.7843L43.9227 28.341C43.7955 28.7323 44.0098 29.1527 44.4011 29.2798C44.7923 29.4071 45.2129 29.1928 45.3399 28.8015L45.5208 28.2447C45.6479 27.8534 45.4338 27.4329 45.0425 27.3059ZM52.7571 27.7843C52.6298 27.393 52.2093 27.1785 51.8183 27.3059C51.4269 27.433 51.2128 27.8534 51.3399 28.2447L51.5208 28.8015C51.649 29.1958 52.0716 29.4062 52.4596 29.2798C52.8509 29.1527 53.0651 28.7323 52.938 28.341L52.7571 27.7843ZM58.8145 23.5024L58.3407 23.1582C58.0081 22.9165 57.542 22.9902 57.3 23.3229C57.0582 23.6558 57.1319 24.1217 57.4647 24.3636C57.8441 24.6066 58.0049 24.8501 58.3758 24.8501C58.6061 24.8501 58.8332 24.7436 58.9791 24.543C59.221 24.2102 59.1472 23.7443 58.8145 23.5024ZM60.7243 16.134H60.1388C59.7272 16.134 59.3937 16.4675 59.3937 16.8791C59.3937 17.2906 59.7272 17.6241 60.1388 17.6241H60.7243C61.1359 17.6241 61.4694 17.2906 61.4694 16.8791C61.4694 16.4675 61.1359 16.134 60.7243 16.134ZM57.9385 9.04999L57.4648 9.39407C57.1319 9.63593 57.0581 10.1019 57.2999 10.4348C57.5407 10.7662 58.0063 10.8425 58.3406 10.5998L58.8143 10.2557C59.1472 10.0138 59.221 9.54786 58.9793 9.21495C58.7374 8.8822 58.2716 8.80843 57.9385 9.04999ZM51.8184 6.45218C52.2096 6.57944 52.6303 6.36515 52.7572 5.97383L52.9381 5.4171C53.0654 5.02578 52.8511 4.60541 52.4598 4.4783C52.068 4.35089 51.6479 4.56517 51.521 4.95664L51.3401 5.51337C51.2128 5.90484 51.4271 6.32521 51.8184 6.45218ZM13.7733 55.562L6.47146 51.5053C6.11159 51.3056 5.65813 51.4349 5.45814 51.7947C5.25831 52.1544 5.38796 52.608 5.74754 52.808C13.3407 56.9875 13.0459 56.9585 13.4106 56.9585C14.1791 56.9585 14.4416 55.9336 13.7733 55.562ZM5.74769 48.7514L13.0495 52.8081C13.4103 53.0082 13.8633 52.8777 14.0628 52.5187C14.2627 52.159 14.133 51.7054 13.7734 51.5054L6.47161 47.4487C6.11173 47.249 5.65827 47.3784 5.45829 47.7381C5.25831 48.0978 5.38811 48.5514 5.74769 48.7514Z" fill="black"/>
</svg>
